<mxfile host="app.diagrams.net" modified="2020-04-01T06:18:18.570Z" agent="5.0 (Windows NT 10.0; Win64; x64) AppleWebKit/537.36 (KHTML, like Gecko) Chrome/80.0.3987.149 Safari/537.36" etag="US1aEYUNBdrEZgt01ykM" version="12.9.6" type="github">
  <diagram id="tWC3bvyy1KuU-ibMh0-T" name="Page-1">
    <mxGraphModel dx="2232" dy="1914" grid="1" gridSize="10" guides="1" tooltips="1" connect="1" arrows="1" fold="1" page="1" pageScale="1" pageWidth="827" pageHeight="1169" math="0" shadow="0">
      <root>
        <mxCell id="0" />
        <mxCell id="1" parent="0" />
        <mxCell id="dDY-Ve7HSEmPciSK5-vR-13" style="edgeStyle=orthogonalEdgeStyle;rounded=0;orthogonalLoop=1;jettySize=auto;html=1;exitX=0;exitY=0.5;exitDx=0;exitDy=0;entryX=1;entryY=0.5;entryDx=0;entryDy=0;" parent="1" source="dDY-Ve7HSEmPciSK5-vR-5" target="dDY-Ve7HSEmPciSK5-vR-12" edge="1">
          <mxGeometry relative="1" as="geometry" />
        </mxCell>
        <mxCell id="dDY-Ve7HSEmPciSK5-vR-5" value="会员&lt;br&gt;biz_member" style="whiteSpace=wrap;html=1;align=center;" parent="1" vertex="1">
          <mxGeometry x="290" y="160" width="160" height="50" as="geometry" />
        </mxCell>
        <mxCell id="dDY-Ve7HSEmPciSK5-vR-6" value="实体卡&lt;br&gt;&lt;span style=&quot;font-family: &amp;#34;times new romain&amp;#34; , &amp;#34;times&amp;#34; , &amp;#34;geneva&amp;#34; ; font-size: 13.3333px ; text-align: -webkit-left ; background-color: rgb(255 , 255 , 255)&quot;&gt;biz_member_card&lt;/span&gt;" style="whiteSpace=wrap;html=1;align=center;" parent="1" vertex="1">
          <mxGeometry x="70" y="-70" width="100" height="40" as="geometry" />
        </mxCell>
        <mxCell id="dDY-Ve7HSEmPciSK5-vR-21" style="edgeStyle=orthogonalEdgeStyle;rounded=0;orthogonalLoop=1;jettySize=auto;html=1;exitX=1;exitY=0.5;exitDx=0;exitDy=0;entryX=0;entryY=0.5;entryDx=0;entryDy=0;" parent="1" source="dDY-Ve7HSEmPciSK5-vR-7" target="dDY-Ve7HSEmPciSK5-vR-20" edge="1">
          <mxGeometry relative="1" as="geometry" />
        </mxCell>
        <mxCell id="dDY-Ve7HSEmPciSK5-vR-22" value="面向标签" style="text;html=1;align=center;verticalAlign=middle;resizable=0;points=[];labelBackgroundColor=#ffffff;" parent="dDY-Ve7HSEmPciSK5-vR-21" vertex="1" connectable="0">
          <mxGeometry x="-0.2267" y="-3" relative="1" as="geometry">
            <mxPoint as="offset" />
          </mxGeometry>
        </mxCell>
        <mxCell id="dDY-Ve7HSEmPciSK5-vR-7" value="体验卡&lt;br&gt;biz_try_card" style="whiteSpace=wrap;html=1;align=center;" parent="1" vertex="1">
          <mxGeometry x="320" y="-70" width="100" height="40" as="geometry" />
        </mxCell>
        <mxCell id="dDY-Ve7HSEmPciSK5-vR-9" style="edgeStyle=orthogonalEdgeStyle;rounded=0;orthogonalLoop=1;jettySize=auto;html=1;exitX=0;exitY=0.5;exitDx=0;exitDy=0;" parent="1" source="dDY-Ve7HSEmPciSK5-vR-8" target="dDY-Ve7HSEmPciSK5-vR-6" edge="1">
          <mxGeometry relative="1" as="geometry" />
        </mxCell>
        <mxCell id="dDY-Ve7HSEmPciSK5-vR-11" style="edgeStyle=orthogonalEdgeStyle;rounded=0;orthogonalLoop=1;jettySize=auto;html=1;exitX=0.5;exitY=0;exitDx=0;exitDy=0;entryX=0.5;entryY=1;entryDx=0;entryDy=0;" parent="1" source="dDY-Ve7HSEmPciSK5-vR-8" target="dDY-Ve7HSEmPciSK5-vR-7" edge="1">
          <mxGeometry relative="1" as="geometry" />
        </mxCell>
        <mxCell id="dDY-Ve7HSEmPciSK5-vR-14" style="edgeStyle=orthogonalEdgeStyle;rounded=0;orthogonalLoop=1;jettySize=auto;html=1;exitX=0.5;exitY=1;exitDx=0;exitDy=0;" parent="1" source="dDY-Ve7HSEmPciSK5-vR-8" target="dDY-Ve7HSEmPciSK5-vR-5" edge="1">
          <mxGeometry relative="1" as="geometry" />
        </mxCell>
        <mxCell id="dDY-Ve7HSEmPciSK5-vR-8" value="卡操作日志&lt;br&gt;&lt;span style=&quot;font-family: &amp;#34;times new romain&amp;#34; , &amp;#34;times&amp;#34; , &amp;#34;geneva&amp;#34; ; font-size: 13.3333px ; text-align: -webkit-left ; background-color: rgb(255 , 255 , 255)&quot;&gt;biz_member_card_user&lt;/span&gt;" style="whiteSpace=wrap;html=1;align=center;" parent="1" vertex="1">
          <mxGeometry x="295" y="70" width="150" height="40" as="geometry" />
        </mxCell>
        <mxCell id="dDY-Ve7HSEmPciSK5-vR-12" value="用户" style="whiteSpace=wrap;html=1;align=center;" parent="1" vertex="1">
          <mxGeometry x="90" y="165" width="100" height="40" as="geometry" />
        </mxCell>
        <mxCell id="dDY-Ve7HSEmPciSK5-vR-16" style="edgeStyle=orthogonalEdgeStyle;rounded=0;orthogonalLoop=1;jettySize=auto;html=1;exitX=0.5;exitY=1;exitDx=0;exitDy=0;" parent="1" source="dDY-Ve7HSEmPciSK5-vR-15" target="dDY-Ve7HSEmPciSK5-vR-6" edge="1">
          <mxGeometry relative="1" as="geometry" />
        </mxCell>
        <mxCell id="dDY-Ve7HSEmPciSK5-vR-19" value="1对多" style="text;html=1;align=center;verticalAlign=middle;resizable=0;points=[];labelBackgroundColor=#ffffff;" parent="dDY-Ve7HSEmPciSK5-vR-16" vertex="1" connectable="0">
          <mxGeometry x="0.24" y="-3" relative="1" as="geometry">
            <mxPoint y="-12" as="offset" />
          </mxGeometry>
        </mxCell>
        <mxCell id="dDY-Ve7HSEmPciSK5-vR-17" style="edgeStyle=orthogonalEdgeStyle;rounded=0;orthogonalLoop=1;jettySize=auto;html=1;exitX=1;exitY=0.5;exitDx=0;exitDy=0;entryX=0.5;entryY=0;entryDx=0;entryDy=0;" parent="1" source="dDY-Ve7HSEmPciSK5-vR-15" target="dDY-Ve7HSEmPciSK5-vR-7" edge="1">
          <mxGeometry relative="1" as="geometry" />
        </mxCell>
        <mxCell id="dDY-Ve7HSEmPciSK5-vR-18" value="1对1" style="text;html=1;align=center;verticalAlign=middle;resizable=0;points=[];labelBackgroundColor=#ffffff;" parent="dDY-Ve7HSEmPciSK5-vR-17" vertex="1" connectable="0">
          <mxGeometry x="-0.1923" relative="1" as="geometry">
            <mxPoint as="offset" />
          </mxGeometry>
        </mxCell>
        <mxCell id="dDY-Ve7HSEmPciSK5-vR-15" value="生成批次&lt;br&gt;biz_member_card_create_batch" style="whiteSpace=wrap;html=1;align=center;" parent="1" vertex="1">
          <mxGeometry x="10" y="-210" width="220" height="50" as="geometry" />
        </mxCell>
        <mxCell id="dDY-Ve7HSEmPciSK5-vR-20" value="用户标签关系" style="whiteSpace=wrap;html=1;align=center;" parent="1" vertex="1">
          <mxGeometry x="570" y="-70" width="100" height="40" as="geometry" />
        </mxCell>
        <mxCell id="dDY-Ve7HSEmPciSK5-vR-25" style="edgeStyle=orthogonalEdgeStyle;rounded=0;orthogonalLoop=1;jettySize=auto;html=1;exitX=1;exitY=0.5;exitDx=0;exitDy=0;" parent="1" source="dDY-Ve7HSEmPciSK5-vR-23" target="dDY-Ve7HSEmPciSK5-vR-24" edge="1">
          <mxGeometry relative="1" as="geometry" />
        </mxCell>
        <mxCell id="dDY-Ve7HSEmPciSK5-vR-23" value="按批次生成卡批次号列表（可能几十万）" style="rounded=0;whiteSpace=wrap;html=1;fillColor=none;" parent="1" vertex="1">
          <mxGeometry x="70" y="452.5" width="220" height="90" as="geometry" />
        </mxCell>
        <mxCell id="dDY-Ve7HSEmPciSK5-vR-27" style="edgeStyle=orthogonalEdgeStyle;rounded=0;orthogonalLoop=1;jettySize=auto;html=1;exitX=1;exitY=0.5;exitDx=0;exitDy=0;entryX=0;entryY=0.5;entryDx=0;entryDy=0;" parent="1" source="dDY-Ve7HSEmPciSK5-vR-24" target="dDY-Ve7HSEmPciSK5-vR-26" edge="1">
          <mxGeometry relative="1" as="geometry" />
        </mxCell>
        <mxCell id="dDY-Ve7HSEmPciSK5-vR-24" value="下载卡列表" style="rounded=0;whiteSpace=wrap;html=1;fillColor=none;" parent="1" vertex="1">
          <mxGeometry x="360" y="452.5" width="146" height="90" as="geometry" />
        </mxCell>
        <mxCell id="dDY-Ve7HSEmPciSK5-vR-29" style="edgeStyle=orthogonalEdgeStyle;rounded=0;orthogonalLoop=1;jettySize=auto;html=1;exitX=0.5;exitY=1;exitDx=0;exitDy=0;entryX=0.5;entryY=0;entryDx=0;entryDy=0;" parent="1" source="dDY-Ve7HSEmPciSK5-vR-26" target="dDY-Ve7HSEmPciSK5-vR-28" edge="1">
          <mxGeometry relative="1" as="geometry" />
        </mxCell>
        <mxCell id="dDY-Ve7HSEmPciSK5-vR-26" value="制作实体卡" style="rounded=0;whiteSpace=wrap;html=1;" parent="1" vertex="1">
          <mxGeometry x="610" y="450" width="140" height="95" as="geometry" />
        </mxCell>
        <mxCell id="dDY-Ve7HSEmPciSK5-vR-31" style="edgeStyle=orthogonalEdgeStyle;rounded=0;orthogonalLoop=1;jettySize=auto;html=1;exitX=0;exitY=0.5;exitDx=0;exitDy=0;entryX=1;entryY=0.5;entryDx=0;entryDy=0;" parent="1" source="dDY-Ve7HSEmPciSK5-vR-28" target="dDY-Ve7HSEmPciSK5-vR-30" edge="1">
          <mxGeometry relative="1" as="geometry" />
        </mxCell>
        <mxCell id="dDY-Ve7HSEmPciSK5-vR-28" value="卡+图书绑定发售" style="rounded=0;whiteSpace=wrap;html=1;" parent="1" vertex="1">
          <mxGeometry x="620" y="600" width="120" height="60" as="geometry" />
        </mxCell>
        <mxCell id="dDY-Ve7HSEmPciSK5-vR-33" style="edgeStyle=orthogonalEdgeStyle;rounded=0;orthogonalLoop=1;jettySize=auto;html=1;exitX=0;exitY=0.5;exitDx=0;exitDy=0;entryX=1;entryY=0.5;entryDx=0;entryDy=0;" parent="1" source="dDY-Ve7HSEmPciSK5-vR-30" target="dDY-Ve7HSEmPciSK5-vR-32" edge="1">
          <mxGeometry relative="1" as="geometry" />
        </mxCell>
        <mxCell id="dDY-Ve7HSEmPciSK5-vR-30" value="购买图书" style="rounded=0;whiteSpace=wrap;html=1;" parent="1" vertex="1">
          <mxGeometry x="386" y="600" width="120" height="60" as="geometry" />
        </mxCell>
        <mxCell id="dDY-Ve7HSEmPciSK5-vR-53" style="edgeStyle=orthogonalEdgeStyle;rounded=0;orthogonalLoop=1;jettySize=auto;html=1;exitX=0;exitY=0.5;exitDx=0;exitDy=0;" parent="1" source="dDY-Ve7HSEmPciSK5-vR-32" target="dDY-Ve7HSEmPciSK5-vR-51" edge="1">
          <mxGeometry relative="1" as="geometry" />
        </mxCell>
        <mxCell id="dDY-Ve7HSEmPciSK5-vR-32" value="开通实体卡会员" style="rounded=0;whiteSpace=wrap;html=1;fillColor=none;" parent="1" vertex="1">
          <mxGeometry x="10" y="600" width="120" height="60" as="geometry" />
        </mxCell>
        <mxCell id="dDY-Ve7HSEmPciSK5-vR-36" style="edgeStyle=orthogonalEdgeStyle;rounded=0;orthogonalLoop=1;jettySize=auto;html=1;exitX=1;exitY=0.5;exitDx=0;exitDy=0;entryX=0;entryY=0.5;entryDx=0;entryDy=0;" parent="1" source="dDY-Ve7HSEmPciSK5-vR-34" target="dDY-Ve7HSEmPciSK5-vR-35" edge="1">
          <mxGeometry relative="1" as="geometry" />
        </mxCell>
        <mxCell id="dDY-Ve7HSEmPciSK5-vR-34" value="&lt;span style=&quot;white-space: normal&quot;&gt;按批次新建体验卡&lt;/span&gt;" style="rounded=0;whiteSpace=wrap;html=1;fillColor=none;" parent="1" vertex="1">
          <mxGeometry x="80" y="750" width="120" height="60" as="geometry" />
        </mxCell>
        <mxCell id="dDY-Ve7HSEmPciSK5-vR-38" style="edgeStyle=orthogonalEdgeStyle;rounded=0;orthogonalLoop=1;jettySize=auto;html=1;exitX=1;exitY=0.5;exitDx=0;exitDy=0;entryX=0;entryY=0.5;entryDx=0;entryDy=0;" parent="1" source="dDY-Ve7HSEmPciSK5-vR-35" target="dDY-Ve7HSEmPciSK5-vR-41" edge="1">
          <mxGeometry relative="1" as="geometry">
            <mxPoint x="440" y="780" as="targetPoint" />
          </mxGeometry>
        </mxCell>
        <mxCell id="dDY-Ve7HSEmPciSK5-vR-35" value="发布体验卡" style="rounded=0;whiteSpace=wrap;html=1;fillColor=none;" parent="1" vertex="1">
          <mxGeometry x="260" y="750" width="120" height="60" as="geometry" />
        </mxCell>
        <mxCell id="dDY-Ve7HSEmPciSK5-vR-45" style="edgeStyle=orthogonalEdgeStyle;rounded=0;orthogonalLoop=1;jettySize=auto;html=1;exitX=0.5;exitY=1;exitDx=0;exitDy=0;" parent="1" source="dDY-Ve7HSEmPciSK5-vR-40" target="dDY-Ve7HSEmPciSK5-vR-44" edge="1">
          <mxGeometry relative="1" as="geometry" />
        </mxCell>
        <mxCell id="dDY-Ve7HSEmPciSK5-vR-46" value="是" style="text;html=1;align=center;verticalAlign=middle;resizable=0;points=[];labelBackgroundColor=#ffffff;" parent="dDY-Ve7HSEmPciSK5-vR-45" vertex="1" connectable="0">
          <mxGeometry x="-0.2167" relative="1" as="geometry">
            <mxPoint as="offset" />
          </mxGeometry>
        </mxCell>
        <mxCell id="dDY-Ve7HSEmPciSK5-vR-40" value="是否满足体验条件？" style="rhombus;whiteSpace=wrap;html=1;fillColor=none;" parent="1" vertex="1">
          <mxGeometry x="610" y="740" width="140" height="80" as="geometry" />
        </mxCell>
        <mxCell id="dDY-Ve7HSEmPciSK5-vR-43" style="edgeStyle=orthogonalEdgeStyle;rounded=0;orthogonalLoop=1;jettySize=auto;html=1;exitX=1;exitY=0.5;exitDx=0;exitDy=0;" parent="1" source="dDY-Ve7HSEmPciSK5-vR-41" target="dDY-Ve7HSEmPciSK5-vR-40" edge="1">
          <mxGeometry relative="1" as="geometry" />
        </mxCell>
        <mxCell id="dDY-Ve7HSEmPciSK5-vR-41" value="用户登录" style="rounded=0;whiteSpace=wrap;html=1;fillColor=none;" parent="1" vertex="1">
          <mxGeometry x="440" y="750" width="120" height="60" as="geometry" />
        </mxCell>
        <mxCell id="dDY-Ve7HSEmPciSK5-vR-48" style="edgeStyle=orthogonalEdgeStyle;rounded=0;orthogonalLoop=1;jettySize=auto;html=1;exitX=0;exitY=0.5;exitDx=0;exitDy=0;entryX=1;entryY=0.5;entryDx=0;entryDy=0;" parent="1" source="dDY-Ve7HSEmPciSK5-vR-44" target="dDY-Ve7HSEmPciSK5-vR-47" edge="1">
          <mxGeometry relative="1" as="geometry" />
        </mxCell>
        <mxCell id="dDY-Ve7HSEmPciSK5-vR-44" value="用户进行激活" style="rounded=0;whiteSpace=wrap;html=1;fillColor=none;" parent="1" vertex="1">
          <mxGeometry x="620" y="920" width="120" height="60" as="geometry" />
        </mxCell>
        <mxCell id="dDY-Ve7HSEmPciSK5-vR-52" style="edgeStyle=orthogonalEdgeStyle;rounded=0;orthogonalLoop=1;jettySize=auto;html=1;exitX=0;exitY=0.5;exitDx=0;exitDy=0;entryX=0.5;entryY=1;entryDx=0;entryDy=0;" parent="1" source="dDY-Ve7HSEmPciSK5-vR-47" target="dDY-Ve7HSEmPciSK5-vR-51" edge="1">
          <mxGeometry relative="1" as="geometry" />
        </mxCell>
        <mxCell id="dDY-Ve7HSEmPciSK5-vR-47" value="开通会员" style="rounded=0;whiteSpace=wrap;html=1;fillColor=none;" parent="1" vertex="1">
          <mxGeometry x="80" y="920" width="120" height="60" as="geometry" />
        </mxCell>
        <mxCell id="dDY-Ve7HSEmPciSK5-vR-50" value="1.已经是会员，会有临时体验卡激活入口吗？" style="shape=document;whiteSpace=wrap;html=1;boundedLbl=1;fillColor=none;align=left;" parent="1" vertex="1">
          <mxGeometry x="330" y="990" width="270" height="150" as="geometry" />
        </mxCell>
        <mxCell id="dDY-Ve7HSEmPciSK5-vR-51" value="设置有效期" style="rounded=0;whiteSpace=wrap;html=1;fillColor=none;" parent="1" vertex="1">
          <mxGeometry x="-100" y="750" width="120" height="60" as="geometry" />
        </mxCell>
        <mxCell id="dDY-Ve7HSEmPciSK5-vR-55" value="&lt;span style=&quot;white-space: normal&quot;&gt;新老数据兼容&lt;/span&gt;" style="shape=process;whiteSpace=wrap;html=1;backgroundOutline=1;fillColor=none;" parent="1" vertex="1">
          <mxGeometry x="-290" y="630" width="120" height="60" as="geometry" />
        </mxCell>
      </root>
    </mxGraphModel>
  </diagram>
</mxfile>
